<svg xmlns="http://www.w3.org/2000/svg" version="1.1" xmlns:xlink="http://www.w3.org/1999/xlink" xmlns:svgjs="http://svgjs.dev/svgjs" width="1500" height="329" viewBox="0 0 1500 329"><g transform="matrix(1,0,0,1,-0.9090909090909918,-1.3934759689051077)"><svg viewBox="0 0 396 87" data-background-color="#ffffff" preserveAspectRatio="xMidYMid meet" height="329" width="1500" xmlns="http://www.w3.org/2000/svg" xmlns:xlink="http://www.w3.org/1999/xlink"><g id="tight-bounds" transform="matrix(1,0,0,1,0.2400000000000091,0.36848756624542034)"><svg viewBox="0 0 395.52 86.26302486750917" height="86.26302486750917" width="395.52"><g><svg viewBox="0 0 395.52 86.26302486750917" height="86.26302486750917" width="395.52"><g><svg viewBox="0 0 395.52 86.26302486750917" height="86.26302486750917" width="395.52"><g id="textblocktransform"><svg viewBox="0 0 395.52 86.26302486750917" height="86.26302486750917" width="395.52" id="textblock"><g><svg viewBox="0 0 395.52 86.26302486750917" height="86.26302486750917" width="395.52"><g transform="matrix(1,0,0,1,0,0)"><svg width="395.52" viewBox="-0.5 -24.9 122.63 26.75" height="86.26302486750917" data-palette-color="#50514f"><g class="wordmark-text-0" data-fill-palette-color="primary" id="text-0"><path d="M0.45 0.6L0.45 0.6Q-0.5 0.6-0.5-0.2L-0.5-0.2Q-0.5-0.85-0.05-1.55 0.4-2.25 1.07-2.75 1.75-3.25 2.4-3.25L2.4-3.25Q2.75-3.25 3.08-3.23 3.4-3.2 3.75-3L3.75-3Q4.45-3.7 6.1-5.4 7.75-7.1 10-9.33 12.25-11.55 14.65-13.9 17.05-16.25 19.23-18.3 21.4-20.35 22.98-21.63 24.55-22.9 25.05-23L25.05-23Q24.9-23.1 24.75-23.1 24.6-23.1 24.5-23.1L24.5-23.1Q23.55-23.1 22.08-22.83 20.6-22.55 19.15-22.18 17.7-21.8 16.75-21.5L16.75-21.5Q15.15-21 13.25-20.6 11.35-20.2 9.7-20.2L9.7-20.2Q9.3-20.2 8.7-20.28 8.1-20.35 7.63-20.6 7.15-20.85 7.15-21.4L7.15-21.4Q7.15-22.25 7.9-22.98 8.65-23.7 9.68-24.18 10.7-24.65 11.4-24.65L11.4-24.65Q11.3-24.5 11.3-24.2L11.3-24.2Q11.3-23.6 11.95-23.48 12.6-23.35 13.15-23.35L13.15-23.35Q15.55-23.35 17.9-23.65 20.25-23.95 22.65-23.95L22.65-23.95Q22.95-23.95 23.65-23.9 24.35-23.85 25.13-23.73 25.9-23.6 26.45-23.33 27-23.05 27-22.6L27-22.6Q27-22.45 26.93-22.15 26.85-21.85 26.6-21.85L26.6-21.85Q26.4-21.85 26.18-22.13 25.95-22.4 25.8-22.5L25.8-22.5Q24.2-21.65 22.08-19.88 19.95-18.1 17.6-15.78 15.25-13.45 12.95-11.03 10.65-8.6 8.65-6.45 6.65-4.3 5.2-2.85L5.2-2.85Q6.4-2.5 7.73-2.45 9.05-2.4 10.3-2.4L10.3-2.4Q11.35-2.4 12.38-2.45 13.4-2.5 14.4-2.6L14.4-2.6Q15.85-2.75 16.78-2.98 17.7-3.2 18.5-3.75 19.3-4.3 20.25-5.3L20.25-5.3Q20.55-5.6 20.75-5.6L20.75-5.6Q21.1-5.6 21.1-5.35L21.1-5.35Q21.1-5.25 21.03-5.18 20.95-5.1 20.85-5L20.85-5Q20.3-4.45 19.78-3.55 19.25-2.65 18.73-1.75 18.2-0.85 17.5-0.25L17.5-0.25Q16.85 0.3 15.95 0.45 15.05 0.6 14.2 0.6L14.2 0.6Q11.55 0.6 8.97-0.1 6.4-0.8 3.85-1.45L3.85-1.45Q3.5-1.2 2.83-0.7 2.15-0.2 1.5 0.2 0.85 0.6 0.45 0.6ZM25.5 0.05L25.5 0.05Q24.1 0.05 22.8-0.65 21.5-1.35 21.5-2.95L21.5-2.95Q21.5-3.15 21.52-3.33 21.55-3.5 21.6-3.7L21.6-3.7Q22-5.4 23.07-7.05 24.15-8.7 25.67-10.15 27.2-11.6 28.87-12.73 30.55-13.85 32.1-14.45L32.1-14.45Q32.25-14.55 32.4-14.6 32.55-14.65 32.75-14.65L32.75-14.65Q33.2-14.65 33.5-14.18 33.8-13.7 33.95-13.1 34.1-12.5 34.1-12.15L34.1-12.15Q34.1-11.25 33.57-10.33 33.05-9.4 32.4-8.8L32.4-8.8Q32.7-8.8 33-8.78 33.3-8.75 33.6-8.75L33.6-8.75Q33.7-8.75 33.7-8.65L33.7-8.65Q33.7-8.6 33.6-8.55 33.5-8.5 33.4-8.45L33.4-8.45 31.9-8.3Q30.5-8.15 29-7.85 27.5-7.55 26.15-7.05L26.15-7.05Q25.5-6.15 24.85-4.8 24.2-3.45 24.2-2.3L24.2-2.3Q24.2-1.65 24.5-1.18 24.8-0.7 25.55-0.7L25.55-0.7Q26-0.7 26.47-0.88 26.95-1.05 27.35-1.25L27.35-1.25Q29.75-2.45 31.65-4.13 33.55-5.8 35.35-7.75L35.35-7.75Q35.45-7.85 35.5-7.85L35.5-7.85Q35.6-7.85 35.6-7.75L35.6-7.75Q35.6-7.6 35.5-7.43 35.4-7.25 35.3-7.15L35.3-7.15Q33.95-5.45 32.2-3.73 30.45-2 28.65-0.85L28.65-0.85Q27.25 0.05 25.5 0.05ZM27.4-8.55L27.4-8.55Q28.55-8.65 29.7-8.72 30.85-8.8 32-8.8L32-8.8Q32.3-9.2 32.52-9.88 32.75-10.55 32.75-11.05L32.75-11.05Q32.75-11.3 32.65-11.58 32.55-11.85 32.2-11.85L32.2-11.85 32.05-11.85Q31.45-11.65 30.52-11.05 29.6-10.45 28.75-9.75 27.9-9.05 27.4-8.55ZM42.65 0.15L42.65 0.15Q41.65 0.15 41.15-0.53 40.65-1.2 40.65-2.15L40.65-2.15Q40.65-3.45 41.25-5 41.85-6.55 42.6-8 43.35-9.45 43.95-10.48 44.55-11.5 44.55-11.8L44.55-11.8Q44.55-11.9 44.45-11.9L44.45-11.9Q44.3-11.9 44.1-11.78 43.9-11.65 43.8-11.55L43.8-11.55Q42.3-10.55 40.67-8.75 39.05-6.95 37.62-4.98 36.2-3 35.25-1.4L35.25-1.4Q34.7-0.45 33.97-0.23 33.25 0 32.25 0L32.25 0Q32.6-0.8 33-1.55 33.4-2.3 33.75-3L33.75-3Q34.35-4.2 34.85-5.38 35.35-6.55 35.85-7.75L35.85-7.75Q36.25-8.8 36.7-10.23 37.15-11.65 37.15-12.75L37.15-12.75Q37.15-13.05 37.1-13.35 37.05-13.65 36.9-13.9L36.9-13.9Q36.75-14.05 36.75-14.05L36.75-14.05Q36.75-14.35 37.1-14.35L37.1-14.35Q37.4-14.35 38.15-14 38.9-13.65 39.57-13.18 40.25-12.7 40.25-12.3L40.25-12.3Q40.25-11.55 39.67-10.15 39.1-8.75 38.37-7.43 37.65-6.1 37.15-5.45L37.15-5.45Q37.1-5.4 37.02-5.3 36.95-5.2 36.95-5.1L36.95-5.1 37-5.05Q37.1-5.05 37.8-5.93 38.5-6.8 39.57-8.1 40.65-9.4 41.95-10.73 43.25-12.05 44.55-12.93 45.85-13.8 46.95-13.8L46.95-13.8Q47.5-13.8 48.2-13.53 48.9-13.25 48.9-12.55L48.9-12.55Q48.9-12.35 48.8-12.18 48.7-12 48.6-11.8L48.6-11.8Q47.05-9.7 45.7-7.73 44.35-5.75 43.3-3.25L43.3-3.25Q43.2-2.95 43.07-2.63 42.95-2.3 42.95-1.95L42.95-1.95Q42.95-1.05 43.85-1.05L43.85-1.05Q44.6-1.05 45.6-1.8 46.6-2.55 47.67-3.65 48.75-4.75 49.7-5.88 50.65-7 51.3-7.75 51.95-8.5 52.05-8.5L52.05-8.5Q52.2-8.5 52.2-8.3L52.2-8.3Q52.2-8.25 51.77-7.73 51.35-7.2 50.9-6.7 50.45-6.2 50.3-6.05L50.3-6.05Q49.45-5.1 48.37-3.83 47.3-2.55 46.1-1.5 44.9-0.45 43.65 0L43.65 0Q43.2 0.15 42.65 0.15ZM54.34 0.55L54.34 0.55Q54.19 0.55 54.17 0.33 54.14 0.1 54.14 0.05L54.14 0.05Q54.14-0.85 54.84-2.6 55.54-4.35 56.72-6.58 57.89-8.8 59.27-11.18 60.64-13.55 62.02-15.78 63.39-18 64.52-19.73 65.64-21.45 66.24-22.3L66.24-22.3Q64.89-22.25 62.82-22.13 60.74-22 58.54-21.68 56.34-21.35 54.52-20.7 52.69-20.05 51.74-18.95L51.74-18.95Q51.54-18.75 51.37-18.45 51.19-18.15 51.19-17.8L51.19-17.8Q51.19-17.15 51.67-16.88 52.14-16.6 52.14-16.35L52.14-16.35Q52.14-16.3 52.02-16.28 51.89-16.25 51.84-16.25L51.84-16.25Q50.84-16.25 49.99-17.05 49.14-17.85 49.14-18.85L49.14-18.85Q49.14-19.1 49.22-19.35 49.29-19.6 49.34-19.85L49.34-19.85Q49.99-21.45 51.74-22.4 53.49-23.35 55.72-23.83 57.94-24.3 60.12-24.45 62.29-24.6 63.79-24.6L63.79-24.6Q64.84-24.6 65.89-24.55 66.94-24.5 67.94-24.4L67.94-24.4Q68.44-24.9 69.29-24.9L69.29-24.9Q69.49-24.9 69.69-24.83 69.89-24.75 69.89-24.5L69.89-24.5Q69.89-24.4 69.79-24.2L69.79-24.2Q70.29-24.15 71.29-23.95 72.29-23.75 73.37-23.4 74.44-23.05 75.19-22.53 75.94-22 75.94-21.3L75.94-21.3Q75.94-21.15 75.87-20.85 75.79-20.55 75.54-20.55L75.54-20.55Q75.49-20.55 75.47-20.63 75.44-20.7 75.39-20.75L75.39-20.75Q75.19-21 74.77-21.18 74.34-21.35 73.99-21.45L73.99-21.45Q72.69-21.85 71.27-22.05 69.84-22.25 68.44-22.3L68.44-22.3Q65.39-18.25 62.54-14.05 59.69-9.85 57.34-5.4L57.34-5.4Q56.69-4.1 56.07-2.73 55.44-1.35 54.79 0L54.79 0Q54.74 0.1 54.62 0.33 54.49 0.55 54.34 0.55ZM68.99 0.2L68.99 0.2Q68.04 0.2 67.44-0.5 66.84-1.2 66.84-2.15L66.84-2.15Q66.84-3.7 67.52-5.38 68.19-7.05 69.12-8.6 70.04-10.15 70.72-11.35 71.39-12.55 71.39-13.05L71.39-13.05Q71.39-13.3 71.24-13.35L71.24-13.35Q72.14-13.75 72.94-13.75L72.94-13.75Q73.44-13.75 74.19-13.53 74.94-13.3 74.94-12.65L74.94-12.65Q74.94-12.45 74.84-12.28 74.74-12.1 74.64-11.95L74.64-11.95Q73.14-9.85 71.79-7.75 70.44-5.65 69.44-3.25L69.44-3.25Q69.34-2.95 69.22-2.6 69.09-2.25 69.09-1.9L69.09-1.9Q69.09-1.05 69.94-1.05L69.94-1.05Q70.69-1.05 71.69-2.13 72.69-3.2 73.74-4.83 74.79-6.45 75.82-8.22 76.84-10 77.67-11.43 78.49-12.85 78.94-13.5L78.94-13.5Q78.99-13.6 79.24-13.6L79.24-13.6Q79.44-13.6 80.17-13.45 80.89-13.3 81.54-13.1 82.19-12.9 82.19-12.7L82.19-12.7Q82.19-12.65 82.14-12.65L82.14-12.65Q81.79-12.15 81.39-11.65 80.99-11.15 80.59-10.65L80.59-10.65Q79.34-8.95 78.17-7.1 76.99-5.25 76.14-3.25L76.14-3.25Q76.04-2.95 75.94-2.63 75.84-2.3 75.84-1.95L75.84-1.95Q75.84-1.05 76.74-1.05L76.74-1.05Q77.49-1.05 78.49-1.8 79.49-2.55 80.54-3.65 81.59-4.75 82.54-5.88 83.49-7 84.14-7.75 84.79-8.5 84.89-8.5L84.89-8.5Q85.09-8.5 85.09-8.3L85.09-8.3Q85.09-8.25 84.67-7.73 84.24-7.2 83.77-6.7 83.29-6.2 83.19-6.05L83.19-6.05Q82.29-5 80.99-3.55 79.69-2.1 78.22-0.98 76.74 0.15 75.24 0.15L75.24 0.15Q73.19 0.15 73.19-1.95L73.19-1.95Q73.19-2.8 73.49-3.55L73.49-3.55Q73.04-2.85 72.34-1.98 71.64-1.1 70.79-0.45 69.94 0.2 68.99 0.2ZM91.59 0.15L91.59 0.15Q90.59 0.15 90.09-0.53 89.59-1.2 89.59-2.15L89.59-2.15Q89.59-3.45 90.19-5 90.79-6.55 91.54-8 92.29-9.45 92.89-10.48 93.49-11.5 93.49-11.8L93.49-11.8Q93.49-11.9 93.39-11.9L93.39-11.9Q93.24-11.9 93.04-11.78 92.84-11.65 92.74-11.55L92.74-11.55Q91.24-10.55 89.61-8.75 87.99-6.95 86.56-4.98 85.14-3 84.19-1.4L84.19-1.4Q83.64-0.45 82.91-0.23 82.19 0 81.19 0L81.19 0Q81.54-0.8 81.94-1.55 82.34-2.3 82.69-3L82.69-3Q83.29-4.2 83.79-5.38 84.29-6.55 84.79-7.75L84.79-7.75Q85.19-8.8 85.64-10.23 86.09-11.65 86.09-12.75L86.09-12.75Q86.09-13.05 86.04-13.35 85.99-13.65 85.84-13.9L85.84-13.9Q85.69-14.05 85.69-14.05L85.69-14.05Q85.69-14.35 86.04-14.35L86.04-14.35Q86.34-14.35 87.09-14 87.84-13.65 88.51-13.18 89.19-12.7 89.19-12.3L89.19-12.3Q89.19-11.55 88.61-10.15 88.04-8.75 87.31-7.43 86.59-6.1 86.09-5.45L86.09-5.45Q86.04-5.4 85.96-5.3 85.89-5.2 85.89-5.1L85.89-5.1 85.94-5.05Q86.04-5.05 86.74-5.93 87.44-6.8 88.51-8.1 89.59-9.4 90.89-10.73 92.19-12.05 93.49-12.93 94.79-13.8 95.89-13.8L95.89-13.8Q96.44-13.8 97.14-13.53 97.84-13.25 97.84-12.55L97.84-12.55Q97.84-12.35 97.74-12.18 97.64-12 97.54-11.8L97.54-11.8Q95.99-9.7 94.64-7.73 93.29-5.75 92.24-3.25L92.24-3.25Q92.14-2.95 92.01-2.63 91.89-2.3 91.89-1.95L91.89-1.95Q91.89-1.05 92.79-1.05L92.79-1.05Q93.54-1.05 94.54-1.8 95.54-2.55 96.61-3.65 97.69-4.75 98.64-5.88 99.59-7 100.24-7.75 100.89-8.5 100.99-8.5L100.99-8.5Q101.14-8.5 101.14-8.3L101.14-8.3Q101.14-8.25 100.71-7.73 100.29-7.2 99.84-6.7 99.39-6.2 99.24-6.05L99.24-6.05Q98.39-5.1 97.31-3.83 96.24-2.55 95.04-1.5 93.84-0.45 92.59 0L92.59 0Q92.14 0.15 91.59 0.15ZM102.09 0.05L102.09 0.05Q100.69 0.05 99.39-0.65 98.09-1.35 98.09-2.95L98.09-2.95Q98.09-3.15 98.11-3.33 98.14-3.5 98.19-3.7L98.19-3.7Q98.59-5.4 99.66-7.05 100.74-8.7 102.26-10.15 103.79-11.6 105.46-12.73 107.14-13.85 108.69-14.45L108.69-14.45Q108.84-14.55 108.99-14.6 109.14-14.65 109.34-14.65L109.34-14.65Q109.79-14.65 110.09-14.18 110.39-13.7 110.54-13.1 110.69-12.5 110.69-12.15L110.69-12.15Q110.69-11.25 110.16-10.33 109.64-9.4 108.99-8.8L108.99-8.8Q109.29-8.8 109.59-8.78 109.89-8.75 110.19-8.75L110.19-8.75Q110.29-8.75 110.29-8.65L110.29-8.65Q110.29-8.6 110.19-8.55 110.09-8.5 109.99-8.45L109.99-8.45 108.49-8.3Q107.09-8.15 105.59-7.85 104.09-7.55 102.74-7.05L102.74-7.05Q102.09-6.15 101.44-4.8 100.79-3.45 100.79-2.3L100.79-2.3Q100.79-1.65 101.09-1.18 101.39-0.7 102.14-0.7L102.14-0.7Q102.59-0.7 103.06-0.88 103.54-1.05 103.94-1.25L103.94-1.25Q106.34-2.45 108.24-4.13 110.14-5.8 111.94-7.75L111.94-7.75Q112.04-7.85 112.09-7.85L112.09-7.85Q112.19-7.85 112.19-7.75L112.19-7.75Q112.19-7.6 112.09-7.43 111.99-7.25 111.89-7.15L111.89-7.15Q110.54-5.45 108.79-3.73 107.04-2 105.24-0.85L105.24-0.85Q103.84 0.05 102.09 0.05ZM103.99-8.55L103.99-8.55Q105.14-8.65 106.29-8.72 107.44-8.8 108.59-8.8L108.59-8.8Q108.89-9.2 109.11-9.88 109.34-10.55 109.34-11.05L109.34-11.05Q109.34-11.3 109.24-11.58 109.14-11.85 108.79-11.85L108.79-11.85 108.64-11.85Q108.04-11.65 107.11-11.05 106.19-10.45 105.34-9.75 104.49-9.05 103.99-8.55ZM111.93 1.85L111.93 1.85Q110.48 1.85 109.81 0.73 109.13-0.4 109.13-1.7L109.13-1.7Q109.13-1.8 109.16-2 109.18-2.2 109.38-2.2L109.38-2.2Q109.53-2.2 109.58-2.02 109.63-1.85 109.68-1.75L109.68-1.75Q110.13-0.25 111.73-0.25L111.73-0.25Q112.58-0.25 113.13-0.8 113.68-1.35 113.68-2.25L113.68-2.25Q113.68-3.25 113.18-4.35 112.68-5.45 112.16-6.7 111.63-7.95 111.63-9.3L111.63-9.3Q111.63-10.4 111.98-11.25L111.98-11.25Q112.33-12.15 113.31-12.98 114.28-13.8 115.58-14.45 116.88-15.1 118.18-15.45 119.48-15.8 120.38-15.8L120.38-15.8Q121.43-15.8 121.78-15.3 122.13-14.8 122.13-13.8L122.13-13.8Q122.13-13.6 122.08-13.28 122.03-12.95 121.78-12.85L121.78-12.85Q120.68-12.5 119.43-11.88 118.18-11.25 117.73-10.1L117.73-10.1Q117.68-9.95 117.53-9.95L117.53-9.95Q117.28-9.95 117.28-10.2L117.28-10.2Q117.28-10.9 118.13-11.78 118.98-12.65 119.53-13L119.53-13Q118.08-12.6 116.66-11.88 115.23-11.15 114.31-10 113.38-8.85 113.38-7.1L113.38-7.1Q113.38-5.55 114.03-4.17 114.68-2.8 114.68-1.25L114.68-1.25Q114.68 0 114.01 0.93 113.33 1.85 111.93 1.85Z" fill="#50514f" data-fill-palette-color="primary"></path></g></svg></g></svg></g></svg></g></svg></g></svg></g><defs></defs></svg><rect width="395.52" height="86.26302486750917" fill="none" stroke="none" visibility="hidden"></rect></g></svg></g></svg>