<svg xmlns="http://www.w3.org/2000/svg" version="1.1" xmlns:xlink="http://www.w3.org/1999/xlink" xmlns:svgjs="http://svgjs.dev/svgjs" width="128" height="128" viewBox="0 0 128 128"><g transform="matrix(0.8046875,0,0,0.8046875,12.333870967741937,16.879068676976637)"><svg viewBox="0 0 155 142" data-background-color="#ffffff" preserveAspectRatio="xMidYMid meet" height="117" width="128" xmlns="http://www.w3.org/2000/svg" xmlns:xlink="http://www.w3.org/1999/xlink"><g id="tight-bounds" transform="matrix(1,0,0,1,0.25,0.07045454545453822)"><svg viewBox="0 0 154.5 141.8590909090909" height="141.8590909090909" width="154.5"><g><svg viewBox="0 0 154.5 141.8590909090909" height="141.8590909090909" width="154.5"><g><svg viewBox="0 0 154.5 141.8590909090909" height="141.8590909090909" width="154.5"><g id="textblocktransform"><svg viewBox="0 0 154.5 141.8590909090909" height="141.8590909090909" width="154.5" id="textblock"><g><svg viewBox="0 0 154.5 141.8590909090909" height="141.8590909090909" width="154.5"><g transform="matrix(1,0,0,1,0,0)"><svg width="154.5" viewBox="-0.5 -24.65 27.5 25.25" height="141.8590909090909" data-palette-color="#50514f"><g class="wordmark-text-0" data-fill-palette-color="primary" id="text-0"><path d="M0.45 0.6L0.45 0.6Q-0.5 0.6-0.5-0.2L-0.5-0.2Q-0.5-0.85-0.05-1.55 0.4-2.25 1.07-2.75 1.75-3.25 2.4-3.25L2.4-3.25Q2.75-3.25 3.08-3.23 3.4-3.2 3.75-3L3.75-3Q4.45-3.7 6.1-5.4 7.75-7.1 10-9.33 12.25-11.55 14.65-13.9 17.05-16.25 19.23-18.3 21.4-20.35 22.98-21.63 24.55-22.9 25.05-23L25.05-23Q24.9-23.1 24.75-23.1 24.6-23.1 24.5-23.1L24.5-23.1Q23.55-23.1 22.08-22.83 20.6-22.55 19.15-22.18 17.7-21.8 16.75-21.5L16.75-21.5Q15.15-21 13.25-20.6 11.35-20.2 9.7-20.2L9.7-20.2Q9.3-20.2 8.7-20.28 8.1-20.35 7.63-20.6 7.15-20.85 7.15-21.4L7.15-21.4Q7.15-22.25 7.9-22.98 8.65-23.7 9.68-24.18 10.7-24.65 11.4-24.65L11.4-24.65Q11.3-24.5 11.3-24.2L11.3-24.2Q11.3-23.6 11.95-23.48 12.6-23.35 13.15-23.35L13.15-23.35Q15.55-23.35 17.9-23.65 20.25-23.95 22.65-23.95L22.65-23.95Q22.95-23.95 23.65-23.9 24.35-23.85 25.13-23.73 25.9-23.6 26.45-23.33 27-23.05 27-22.6L27-22.6Q27-22.45 26.93-22.15 26.85-21.85 26.6-21.85L26.6-21.85Q26.4-21.85 26.18-22.13 25.95-22.4 25.8-22.5L25.8-22.5Q24.2-21.65 22.08-19.88 19.95-18.1 17.6-15.78 15.25-13.45 12.95-11.03 10.65-8.6 8.65-6.45 6.65-4.3 5.2-2.85L5.2-2.85Q6.4-2.5 7.73-2.45 9.05-2.4 10.3-2.4L10.3-2.4Q11.35-2.4 12.38-2.45 13.4-2.5 14.4-2.6L14.4-2.6Q15.85-2.75 16.78-2.98 17.7-3.2 18.5-3.75 19.3-4.3 20.25-5.3L20.25-5.3Q20.55-5.6 20.75-5.6L20.75-5.6Q21.1-5.6 21.1-5.35L21.1-5.35Q21.1-5.25 21.03-5.18 20.95-5.1 20.85-5L20.85-5Q20.3-4.45 19.78-3.55 19.25-2.65 18.73-1.75 18.2-0.85 17.5-0.25L17.5-0.25Q16.85 0.3 15.95 0.45 15.05 0.6 14.2 0.6L14.2 0.6Q11.55 0.6 8.97-0.1 6.4-0.8 3.85-1.45L3.85-1.45Q3.5-1.2 2.83-0.7 2.15-0.2 1.5 0.2 0.85 0.6 0.45 0.6Z" fill="#50514f" data-fill-palette-color="primary"></path></g></svg></g></svg></g></svg></g></svg></g></svg></g><defs></defs></svg><rect width="154.5" height="141.8590909090909" fill="none" stroke="none" visibility="hidden"></rect></g></svg></g></svg>